<?xml version="1.0" encoding="UTF-8"?>
<svg version="1.1" xmlns="http://www.w3.org/2000/svg" width="52" height="31">
<path d="M0 0 C5.56835907 -0.12408068 11.13590436 -0.21456522 16.70532227 -0.2746582 C18.59771757 -0.29972197 20.49001683 -0.33378253 22.38208008 -0.37719727 C25.11043043 -0.4382101 27.8374955 -0.46629069 30.56640625 -0.48828125 C31.82463951 -0.52699089 31.82463951 -0.52699089 33.10829163 -0.56648254 C38.34841682 -0.56895531 41.45511638 0.36992013 45.6111908 3.59382629 C48.96132141 6.98584412 49.8532628 10.84706489 50.4375 15.4375 C49.73074656 21.19249233 47.89014666 25.1899443 43.6953125 29.20703125 C38.61542311 32.38758489 32.26557982 31.57368153 26.5 31.5 C24.68435547 31.52320313 24.68435547 31.52320313 22.83203125 31.546875 C11.61745998 31.49752595 11.61745998 31.49752595 7 27 C3.49268193 22.69446471 2.24269169 18.92671455 1.25 13.5 C1.00765625 12.2315625 0.7653125 10.963125 0.515625 9.65625 C0.05127875 6.36361294 -0.03854963 3.31526782 0 0 Z " fill="#91DC33" transform="translate(0,0)"/>
<path d="M0 0 C3.93743833 -0.05797565 7.87476719 -0.09358789 11.8125 -0.125 C12.93205078 -0.14175781 14.05160156 -0.15851562 15.20507812 -0.17578125 C16.27822266 -0.18222656 17.35136719 -0.18867187 18.45703125 -0.1953125 C19.9416687 -0.21102295 19.9416687 -0.21102295 21.45629883 -0.22705078 C24 0 24 0 27 2 C26.21625 2.5775 25.4325 3.155 24.625 3.75 C21.40226872 6.5123411 20.21144837 8.37233929 19.6640625 12.5859375 C19.58003019 18.58584459 19.80516742 22.33907492 24 27 C26.10575643 28.83300909 26.10575643 28.83300909 28 30 C21.85398067 31.77455488 15.38780271 32.12877946 9.5625 29.375 C4.5211711 24.70254883 2.47799809 20.2130562 1.25 13.5 C1.00765625 12.2315625 0.7653125 10.963125 0.515625 9.65625 C0.05228107 6.37072028 -0.1021753 3.3104797 0 0 Z " fill="#49C8F2" transform="translate(0,0)"/>
<path d="M0 0 C0.66 0 1.32 0 2 0 C2 0.99 2 1.98 2 3 C1.35546875 3.23460937 0.7109375 3.46921875 0.046875 3.7109375 C-2.2077908 4.81161073 -2.2077908 4.81161073 -2.609375 7.1640625 C-2.67898437 8.38222656 -2.67898437 8.38222656 -2.75 9.625 C-2.80671875 10.44226562 -2.8634375 11.25953125 -2.921875 12.1015625 C-2.94765625 12.72804688 -2.9734375 13.35453125 -3 14 C-4.32 14.33 -5.64 14.66 -7 15 C-7.33 16.98 -7.66 18.96 -8 21 C-9.98 21 -11.96 21 -14 21 C-14.91657981 15.61509359 -15.11138159 10.45769811 -15 5 C-15.66 5 -16.32 5 -17 5 C-17 4.01 -17 3.02 -17 2 C-15.85660156 1.93941406 -14.71320312 1.87882813 -13.53515625 1.81640625 C-12.04425695 1.73201572 -10.55337225 1.64736698 -9.0625 1.5625 C-8.30775391 1.52318359 -7.55300781 1.48386719 -6.77539062 1.44335938 C-3.08055813 1.55961976 -3.08055813 1.55961976 0 0 Z " fill="#FDFEFC" transform="translate(43,6)"/>
<path d="M0 0 C0 0.66 0 1.32 0 2 C-4.95 2 -9.9 2 -15 2 C-15 1.34 -15 0.68 -15 0 C-10.19651495 -1.60116168 -4.8351138 -1.6117046 0 0 Z " fill="#EBF8DA" transform="translate(41,5)"/>
<path d="M0 0 C0.66 0 1.32 0 2 0 C2 0.99 2 1.98 2 3 C-1.53870977 4.17956992 -4.3366687 4.06164767 -8.0625 4 C-12.696094 3.73216886 -12.696094 3.73216886 -17 5 C-17 4.01 -17 3.02 -17 2 C-15.85660156 1.93941406 -14.71320312 1.87882813 -13.53515625 1.81640625 C-12.04425695 1.73201572 -10.55337225 1.64736698 -9.0625 1.5625 C-8.30775391 1.52318359 -7.55300781 1.48386719 -6.77539062 1.44335938 C-3.08055813 1.55961976 -3.08055813 1.55961976 0 0 Z " fill="#CAEE9C" transform="translate(43,6)"/>
<path d="M0 0 C1.32 0 2.64 0 4 0 C3.67 1.65 3.34 3.3 3 5 C1.68 4.67 0.36 4.34 -1 4 C-0.67 2.68 -0.34 1.36 0 0 Z " fill="#E3F6CB" transform="translate(37,22)"/>
</svg>
